Motion_pl01
version=1
nRows=13
nColumns=43
inDegrees=yes
endheader
time	pelvis_tilt	pelvis_list	pelvis_rotation	pelvis_tx	pelvis_ty	pelvis_tz	hip_flexion_r	hip_adduction_r	hip_rotation_r	knee_angle_r	ankle_angle_r	subtalar_angle_r	mtp_angle_r	hip_flexion_l	hip_adduction_l	hip_rotation_l	knee_angle_l	ankle_angle_l	subtalar_angle_l	mtp_angle_l	lumbar_extension	lumbar_bending	lumbar_rotation	neck_flexion	neck_lateral_bending	neck_rotation	arm_flex_r	arm_add_r	arm_rot_r	elbow_flex_r	pro_sup_r	wrist_flex_r	wrist_dev_r	hand_finger_flex_r	arm_flex_l	arm_add_l	arm_rot_l	elbow_flex_l	pro_sup_l	wrist_flex_l	wrist_dev_l	hand_finger_flex_l
      2.25000000	      1.85340119	      9.35819629	     89.73783268	     -0.04046991	      0.95868870	      0.27740520	     -3.75645937	     -1.40244307	     -8.90369427	    -20.08386864	    -10.16602951	      2.39453050	     30.73736988	     -3.59327619	     -3.41261179	    -10.19660080	    -22.68830704	     -4.57228431	     -9.38386866	     27.29097341	    -51.95430845	      0.83923217	     -1.49202124	    -12.10122154	      2.48969265	     -1.25667413	     10.82191976	    -16.94866378	      1.56808352	     43.94270231	    116.68639095	    -20.92404110	     -1.61640380	     19.76722994	      8.20249664	    -17.84122023	    -15.23780304	     48.86204608	    132.10000520	    -10.04160298	     10.27872495	     49.52176629
      2.25250000	      1.85492685	      9.34532259	     89.73494134	     -0.04055291	      0.95880904	      0.27732576	     -3.77663304	     -1.40132138	     -8.89457052	    -20.03839732	    -10.14875924	      2.40951958	     30.73694824	     -3.61419547	     -3.40343656	    -10.20814573	    -22.64365926	     -4.56362520	     -9.37519183	     27.29163879	    -51.85567657	      0.84748137	     -1.51707782	    -12.18828621	      2.49140542	     -1.25418161	     11.05746774	    -16.89016542	      1.58631821	     44.11149748	    116.67491294	    -20.94633143	     -1.65830049	     19.77907632	      8.43182639	    -17.74630256	    -15.19558582	     49.04571078	    132.07827528	    -10.06546670	     10.25184683	     49.52068911
      2.25500000	      1.85339940	      9.31689140	     89.73464076	     -0.04061635	      0.95891299	      0.27722594	     -3.80113756	     -1.39937259	     -8.88455944	    -19.94839335	    -10.13683743	      2.42669420	     30.73437472	     -3.63664121	     -3.39177989	    -10.21082331	    -22.55944911	     -4.56190359	     -9.36080946	     27.29108369	    -51.74051782	      0.84971454	     -1.53093770	    -12.28622062	      2.49258511	     -1.24870358	     11.27221254	    -16.83752783	      1.60881427	     44.29313372	    116.65795008	    -20.96927024	     -1.70266012	     19.79569071	      8.65476256	    -17.64700787	    -15.14637777	     49.25589369	    132.04789648	    -10.08770627	     10.22071284	     49.52253642
      2.25750000	      1.85114618	      9.27672558	     89.73337230	     -0.04067954	      0.95898612	      0.27709289	     -3.83301283	     -1.39883793	     -8.87155844	    -19.81918417	    -10.13446107	      2.44660642	     30.72893236	     -3.66611739	     -3.37975059	    -10.20412782	    -22.44218517	     -4.57024307	     -9.33970251	     27.28896908	    -51.60873138	      0.84914574	     -1.53919334	    -12.39254948	      2.49832567	     -1.24171730	     11.46723760	    -16.79241224	      1.63443158	     44.49182600	    116.63173876	    -20.99426266	     -1.75123992	     19.81911647	      8.86122711	    -17.54092485	    -15.08670137	     49.48372738	    132.00662264	    -10.10818976	     10.18775453	     49.52755808
      2.26000000	      1.84432532	      9.19692836	     89.73476535	     -0.04082613	      0.95893763	      0.27664331	     -3.92074014	     -1.39129623	     -8.82818259	    -19.52684330	    -10.19192793	      2.50008426	     30.70425291	     -3.73214764	     -3.33567864	    -10.16310653	    -22.17691157	     -4.63970771	     -9.27464898	     27.27781491	    -51.39580438	      0.85036668	     -1.52300318	    -12.55907275	      2.53397862	     -1.22780524	     11.52878482	    -16.78757056	      1.69458484	     44.77488223	    116.52909178	    -21.05002792	     -1.82854258	     19.90383984	      8.97250069	    -17.42302298	    -14.97387726	     49.80594773	    131.88828012	    -10.14505800	     10.16103619	     49.54750757
      2.26250000	      1.85041056	      9.19518086	     89.72242064	     -0.04085772	      0.95910465	      0.27655156	     -3.95525025	     -1.38443580	     -8.83541951	    -19.47266091	    -10.19254055	      2.50484457	     30.70023525	     -3.76859062	     -3.33795599	    -10.16958016	    -22.13249658	     -4.63765620	     -9.26887594	     27.27684093	    -51.31625194	      0.84693403	     -1.54370023	    -12.61870960	      2.54254197	     -1.22607202	     11.76564279	    -16.71284784	      1.71485768	     44.95422273	    116.50212991	    -21.06901815	     -1.87077632	     19.92099192	      9.21131317	    -17.33191245	    -14.91665444	     49.97301969	    131.85315114	    -10.15952518	     10.13633263	     49.54905944
      2.26500000	      1.85279876	      9.17560905	     89.72363528	     -0.04093398	      0.95923471	      0.27644435	     -3.99994148	     -1.38091539	     -8.83404841	    -19.36098335	    -10.20255233	      2.51248117	     30.69289516	     -3.80937317	     -3.33454810	    -10.17209513	    -22.03479627	     -4.64658099	     -9.25459506	     27.27412347	    -51.21597962	      0.85076811	     -1.55022730	    -12.69247049	      2.55074101	     -1.21774560	     11.97466507	    -16.66144750	      1.73718957	     45.14731563	    116.46338387	    -21.09031122	     -1.91777380	     19.94580976	      9.44093821	    -17.22384846	    -14.84329424	     50.17930174	    131.80378340	    -10.17384749	     10.11021239	     49.55486835
      2.26750000	      1.85696953	      9.12683352	     89.73906239	     -0.04114965	      0.95927581	      0.27596122	     -4.14577835	     -1.36086287	     -8.81345089	    -19.02091888	    -10.31149388	      2.54105780	     30.65624980	     -3.92045909	     -3.30331039	    -10.14878083	    -21.73802936	     -4.74061071	     -9.18839827	     27.25902032	    -51.04804546	      0.87337017	     -1.51098769	    -12.80932569	      2.59729994	     -1.19072502	     12.01702758	    -16.68461669	      1.79800520	     45.45853944	    116.29631262	    -21.14820247	     -2.00360139	     20.05076051	      9.57682567	    -17.10292967	    -14.66834370	     50.50136355	    131.63826693	    -10.20188643	     10.11533770	     49.58350873
      2.27000000	      1.86703997	      9.13465776	     89.72768511	     -0.04118435	      0.95945047	      0.27588312	     -4.19053920	     -1.35230122	     -8.82749087	    -18.96798174	    -10.31905428	      2.54060048	     30.65071809	     -3.96591895	     -3.31075584	    -10.16063916	    -21.69771231	     -4.74036066	     -9.18358665	     27.25807342	    -50.97991801	      0.87150637	     -1.53054122	    -12.86305459	      2.60735762	     -1.18830638	     12.25410829	    -16.60742823	      1.82028204	     45.64272519	    116.25794953	    -21.16798196	     -2.04599944	     20.06953348	      9.81999272	    -17.00827898	    -14.59816080	     50.66488192	    131.59698113	    -10.21532348	     10.09906677	     49.58587234
      2.27250000	      1.87159672	      9.12542933	     89.73354129	     -0.04127388	      0.95959301	      0.27576775	     -4.24878356	     -1.34736627	     -8.83658059	    -18.85378442	    -10.33818608	      2.54289947	     30.64127477	     -4.01648681	     -3.31127047	    -10.17450300	    -21.60153750	     -4.75275881	     -9.16975601	     27.25553786	    -50.89085450	      0.88070250	     -1.53343888	    -12.93086782	      2.61624619	     -1.17658035	     12.45750499	    -16.55935825	      1.84658267	     45.84196625	    116.20370252	    -21.19100774	     -2.09186361	     20.09601452	     10.05228065	    -16.89484959	    -14.50530762	     50.87493701	    131.54030934	    -10.22847870	     10.08448616	     49.59307267
      2.27500000	      1.95819712	      9.72098966	     89.81518850	     -0.04157833	      0.96071608	      0.27493787	     -5.24417699	     -1.23722589	     -9.08490628	    -18.24333029	    -10.98182712	      2.51931518	     30.42459094	     -4.89162064	     -3.39904919	    -10.31329409	    -21.21512150	     -5.06642057	     -8.95292409	     27.22619346	    -51.42530221	      0.98809749	     -1.31305343	    -12.83762490	      2.87937240	     -1.18755223	     12.31712702	    -16.81837814	      2.12680512	     46.47922636	    114.72199138	    -21.69417899	     -2.16391100	     20.76035233	     10.33238686	    -16.98655774	    -13.51743607	     51.26445102	    130.44829763	    -10.49361326	     10.70996020	     49.70122357
      2.27750000	      1.96100490	      9.69172971	     89.80362302	     -0.04151172	      0.96083467	      0.27483033	     -5.27039899	     -1.22042819	     -9.09987680	    -18.15141783	    -10.92015026	      2.51555635	     30.42899751	     -4.91815454	     -3.39978284	    -10.32149378	    -21.12316300	     -5.02612944	     -8.95198373	     27.23074489	    -51.31288415	      0.97164792	     -1.33282858	    -12.90742543	      2.85485910	     -1.19879203	     12.55244555	    -16.71756536	      2.16043937	     46.63140161	    114.70312411	    -21.71952203	     -2.19073033	     20.77331885	     10.57469048	    -16.88690514	    -13.47594124	     51.43098158	    130.41850715	    -10.51930283	     10.69181322	     49.70143108
      2.28000000	      1.96091783	      9.65522340	     89.80296952	     -0.04158256	      0.96091006	      0.27467606	     -5.30528250	     -1.21535118	     -9.10809038	    -18.03427381	    -10.87561630	      2.51697529	     30.43027225	     -4.94628974	     -3.38886378	    -10.33548826	    -21.01319012	     -5.00308739	     -8.94229756	     27.23388262	    -51.18340054	      0.97816901	     -1.34989482	    -12.99389034	      2.83783738	     -1.20268336	     12.76389824	    -16.64770992	      2.19507432	     46.80350068	    114.67619808	    -21.74702258	     -2.22054259	     20.78984446	     10.78612134	    -16.76054818	    -13.41241775	     51.63157438	    130.38007480	    -10.54122994	     10.67119869	     49.70624244
